<svg id="visual" viewBox="0 0 960 540" width="960" height="540" xmlns="http://www.w3.org/2000/svg" xmlns:xlink="http://www.w3.org/1999/xlink" version="1.1"><rect x="0" y="0" width="960" height="540" fill="#ffffff"></rect><path d="M0 344L137 387L274 345L411 386L549 350L686 320L823 368L960 336L960 541L823 541L686 541L549 541L411 541L274 541L137 541L0 541Z" fill="#ccfbf1"></path><path d="M0 365L137 369L274 424L411 410L549 369L686 427L823 410L960 357L960 541L823 541L686 541L549 541L411 541L274 541L137 541L0 541Z" fill="#a8ebdd"></path><path d="M0 451L137 460L274 429L411 459L549 409L686 409L823 460L960 395L960 541L823 541L686 541L549 541L411 541L274 541L137 541L0 541Z" fill="#83daca"></path><path d="M0 486L137 450L274 479L411 439L549 447L686 446L823 467L960 487L960 541L823 541L686 541L549 541L411 541L274 541L137 541L0 541Z" fill="#59c9b8"></path><path d="M0 478L137 486L274 475L411 494L549 478L686 508L823 490L960 490L960 541L823 541L686 541L549 541L411 541L274 541L137 541L0 541Z" fill="#14b8a6"></path></svg>