<svg id="visual" viewBox="0 0 675 900" width="675" height="900" xmlns="http://www.w3.org/2000/svg" xmlns:xlink="http://www.w3.org/1999/xlink" version="1.1"><rect x="0" y="0" width="675" height="900" fill="#ffffff"></rect><path d="M0 688L135 639L270 680L405 706L540 693L675 615L675 901L540 901L405 901L270 901L135 901L0 901Z" fill="#ccfbf1"></path><path d="M0 674L135 720L270 727L405 694L540 698L675 713L675 901L540 901L405 901L270 901L135 901L0 901Z" fill="#a8ebdd"></path><path d="M0 731L135 744L270 756L405 777L540 718L675 743L675 901L540 901L405 901L270 901L135 901L0 901Z" fill="#83daca"></path><path d="M0 803L135 823L270 807L405 805L540 775L675 790L675 901L540 901L405 901L270 901L135 901L0 901Z" fill="#59c9b8"></path><path d="M0 850L135 839L270 845L405 834L540 847L675 861L675 901L540 901L405 901L270 901L135 901L0 901Z" fill="#14b8a6"></path></svg>